<svg version="1.1" id="Layer_1" xmlns="http://www.w3.org/2000/svg" xmlns:xlink="http://www.w3.org/1999/xlink" x="0px" y="0px"
	 width="100%" viewBox="0 0 992 992" enable-background="new 0 0 992 992" xml:space="preserve">
<path fill="#000000" opacity="1.000000" stroke="none" 
	d="
M727.000000,818.991760 
	C697.667236,818.988098 668.834167,819.053650 640.001709,818.955811 
	C622.438171,818.896179 606.032349,814.970337 591.822510,803.937866 
	C573.765381,789.918213 563.368896,771.437317 562.957947,748.743713 
	C562.215759,707.758118 561.816101,666.722290 563.027954,625.759277 
	C563.987732,593.318359 587.769409,565.647949 621.552246,558.665344 
	C627.953125,557.342346 634.465454,557.192932 640.928040,557.165894 
	C675.926758,557.019836 710.926575,557.156250 745.925659,557.056458 
	C769.232666,556.990051 789.443176,564.149719 805.261414,581.850098 
	C818.849915,597.055420 823.929016,615.257996 823.922058,635.244690 
	C823.909729,670.743958 824.074097,706.243896 823.914978,741.742371 
	C823.761353,776.028992 806.545288,802.132751 776.852844,813.870117 
	C767.242798,817.668884 757.160889,818.607910 746.998230,818.955994 
	C740.506042,819.178406 733.999878,818.994080 727.000000,818.991760 
M599.345337,659.499939 
	C599.347046,688.330627 599.287598,717.161560 599.371765,745.992004 
	C599.428528,765.412903 615.005493,781.590332 634.426392,781.711731 
	C673.753845,781.957336 713.085266,781.931335 752.412720,781.668213 
	C770.686646,781.546021 786.490112,766.231934 786.675415,747.954651 
	C787.079224,708.130798 787.109192,668.297180 786.701477,628.473633 
	C786.505981,609.374512 770.939575,594.406982 751.905151,594.302795 
	C712.743530,594.088318 673.579041,594.082336 634.417480,594.304382 
	C614.990356,594.414551 599.422119,610.588440 599.347351,630.002441 
	C599.310791,639.501465 599.343872,649.000732 599.345337,659.499939 
z"/>
<path fill="#000000" opacity="1.000000" stroke="none" 
	d="
M177.709808,747.852295 
	C177.695358,707.705627 177.560471,668.040344 177.724350,628.376282 
	C177.878723,591.010620 209.512207,558.812683 246.783508,557.633667 
	C285.269501,556.416321 323.764038,557.116760 362.252594,557.173645 
	C394.310242,557.221008 418.206146,571.275391 432.230713,600.595520 
	C436.277679,609.056213 438.372772,618.142090 438.372589,627.633606 
	C438.371948,663.465027 438.274719,699.297363 438.513489,735.127380 
	C438.593689,747.163269 438.448975,759.011719 434.328735,770.555603 
	C424.608765,797.788696 398.994293,817.098877 370.034821,818.309631 
	C330.894836,819.945923 291.726624,819.080933 252.579407,818.791748 
	C221.597824,818.562988 198.410233,804.462769 184.525909,776.282043 
	C180.206635,767.515381 178.295197,758.063110 177.709808,747.852295 
M362.453156,781.845398 
	C364.619110,781.799011 366.787262,781.799622 368.950653,781.698608 
	C385.587799,780.921997 401.500153,765.558411 401.631500,748.907654 
	C401.952240,708.246338 401.939423,667.578613 401.582703,626.917664 
	C401.435181,610.102539 385.792023,594.564819 368.811310,594.415894 
	C328.315948,594.060730 287.812988,594.044739 247.318008,594.419800 
	C230.021530,594.579956 214.409363,611.275757 214.372314,628.572388 
	C214.288467,667.738281 214.339264,706.904541 214.357361,746.070618 
	C214.359695,751.126343 215.356659,756.021973 217.589447,760.560364 
	C224.191803,773.980347 234.837006,781.660156 249.968765,781.745239 
	C287.133636,781.954102 324.300354,781.833679 362.453156,781.845398 
z"/>
<path fill="#000000" opacity="1.000000" stroke="none" 
	d="
M576.289673,214.354706 
	C592.051208,193.448517 612.821777,183.602020 638.549194,183.663528 
	C675.705322,183.752365 712.861938,183.658203 750.018250,183.697311 
	C787.695129,183.736969 818.592773,211.002899 823.172852,248.294647 
	C823.719360,252.744507 823.877991,257.265594 823.886108,261.754272 
	C823.950134,297.077728 823.881897,332.401428 823.961121,367.724823 
	C824.009094,389.104614 817.877808,408.071289 802.541443,423.471344 
	C788.888550,437.180786 772.300293,444.829895 752.972046,445.006958 
	C713.320068,445.370178 673.655273,445.592010 634.009155,444.990814 
	C594.163818,444.386597 562.934875,412.127106 562.737732,372.223816 
	C562.550842,334.401886 562.766357,296.578125 562.661743,258.755554 
	C562.617126,242.624512 566.719543,227.861771 576.289673,214.354706 
M599.345093,299.499939 
	C599.346680,323.486938 599.327759,347.473969 599.356079,371.460938 
	C599.380676,392.270782 614.979370,408.457733 635.789124,408.580414 
	C673.767395,408.804382 711.748901,408.813232 749.726990,408.580078 
	C771.556946,408.446045 786.808777,393.057129 786.904785,371.263062 
	C787.071289,333.450867 787.063477,295.636688 786.877258,257.824615 
	C786.771362,236.321411 771.742249,220.702332 750.268433,220.483917 
	C712.126221,220.095947 673.974792,220.101807 635.832275,220.470154 
	C614.469421,220.676453 599.352539,236.750824 599.339600,258.021698 
	C599.331360,271.514435 599.342896,285.007172 599.345093,299.499939 
z"/>
<path fill="#000000" opacity="1.000000" stroke="none" 
	d="
M184.212189,226.366333 
	C198.615768,198.225967 221.401093,183.966019 252.574631,183.748718 
	C289.890625,183.488602 327.209869,183.664749 364.527679,183.699921 
	C402.597076,183.735794 433.458893,210.721756 438.101410,248.367569 
	C438.951569,255.261520 438.422211,262.333405 438.421478,269.323181 
	C438.417633,305.141418 438.491211,340.960175 438.318024,376.777710 
	C438.162323,408.982758 408.393097,441.173737 376.294098,444.338043 
	C369.979279,444.960571 363.679260,445.187195 357.347656,445.182678 
	C322.029022,445.157440 286.709503,445.323273 251.391983,445.124481 
	C215.285217,444.921234 186.934555,421.769043 179.223038,386.538055 
	C178.047455,381.167267 177.634766,375.705078 177.643661,370.181976 
	C177.703491,333.030884 177.786224,295.879059 177.607834,258.728699 
	C177.554077,247.532913 179.703110,236.938324 184.212189,226.366333 
M261.508362,408.653259 
	C295.652496,408.652161 329.796692,408.624664 363.940796,408.659027 
	C387.708496,408.682953 402.235260,389.827393 402.013214,371.520538 
	C401.552673,333.551025 401.638916,295.570099 401.967377,257.597900 
	C402.131958,238.569977 388.149689,220.729446 365.025848,220.482834 
	C327.055023,220.077881 289.075104,220.151428 251.102417,220.450363 
	C231.002365,220.608597 214.518372,236.129700 214.415024,254.750839 
	C214.195023,294.390289 214.250443,334.032227 214.409073,373.672272 
	C214.470139,388.930511 225.927460,402.971069 240.691101,407.037262 
	C247.234283,408.839386 253.862091,408.668518 261.508362,408.653259 
z"/>
<path fill="#000000" opacity="1.000000" stroke="none" 
	d="
M150.742004,62.574200 
	C171.445358,54.420254 192.427795,50.388790 214.416077,50.538857 
	C264.567566,50.881130 314.725739,50.935333 364.874939,50.454327 
	C378.036377,50.328091 384.519958,59.174057 385.199036,67.864410 
	C385.964020,77.654854 377.555084,86.096558 366.249115,87.126144 
	C364.429871,87.291817 362.586151,87.205910 360.753723,87.207321 
	C310.433441,87.246216 260.111328,87.034241 209.793610,87.410294 
	C179.867203,87.633949 153.492615,98.301979 130.626358,117.406868 
	C105.263092,138.598038 90.614388,165.954544 85.612534,198.472580 
	C84.759995,204.015137 84.269722,209.674423 84.280968,215.371124 
	C84.381584,266.357849 84.345642,317.344879 84.334282,368.331818 
	C84.331909,378.973389 78.370300,386.080414 68.090721,387.799103 
	C59.985912,389.154175 50.026653,382.205566 48.727787,374.090546 
	C48.204227,370.819458 47.986980,367.466278 47.983406,364.150085 
	C47.929005,313.663055 47.320854,263.166656 48.091282,212.691498 
	C48.905544,159.344589 71.982582,116.675682 113.661652,83.828972 
	C124.852142,75.009880 137.380203,68.425217 150.742004,62.574200 
z"/>
<path fill="#000000" opacity="1.000000" stroke="none" 
	d="
M666.000122,915.634888 
	C706.651062,915.637451 746.806030,916.003479 786.952026,915.561218 
	C852.716492,914.836792 904.879150,868.663147 915.503418,805.902588 
	C916.784119,798.336914 916.830750,790.673462 916.826843,783.013245 
	C916.801819,733.865784 916.800171,684.718384 916.817810,635.570923 
	C916.821594,625.123535 921.035950,618.516235 929.401733,615.584839 
	C940.920532,611.548584 953.292542,619.936035 953.307739,632.101685 
	C953.376526,687.079956 954.183838,742.077393 952.979248,797.029724 
	C952.233459,831.053040 939.301208,861.641907 918.234497,888.376282 
	C893.181458,920.169739 860.535339,940.176453 820.983765,948.757324 
	C810.403625,951.052734 799.620544,952.133911 788.782349,952.144592 
	C738.468750,952.193970 688.155090,952.187012 637.841492,952.159180 
	C626.787476,952.153076 620.156982,947.982422 617.422546,939.565430 
	C613.487061,927.450989 621.794495,915.766052 634.513733,915.658447 
	C644.841858,915.571106 655.171265,915.637268 666.000122,915.634888 
z"/>
<path fill="#000000" opacity="1.000000" stroke="none" 
	d="
M916.829041,324.000000 
	C916.776794,286.015015 917.898560,248.482254 916.375000,211.057175 
	C914.477295,164.444550 892.354187,128.677902 852.331909,104.542862 
	C831.921326,92.234467 809.461426,87.040405 785.581238,87.151237 
	C736.933960,87.377029 688.284973,87.210754 639.636658,87.251068 
	C636.280518,87.253853 632.968018,87.049545 629.739319,86.192924 
	C620.674072,83.787758 615.329346,74.951538 616.712402,64.804672 
	C617.785583,56.931477 625.421631,50.658875 634.103638,50.656357 
	C688.416443,50.640606 742.753662,49.649609 797.034302,50.972740 
	C840.201782,52.024986 876.875671,70.116096 906.877380,101.109497 
	C932.224548,127.294556 947.126221,158.755814 952.029541,194.845718 
	C952.830505,200.740997 953.423401,206.707291 953.410706,212.735474 
	C953.301880,264.382416 953.109619,316.031464 953.513000,367.675476 
	C953.611145,380.249359 944.864197,387.651276 936.023621,388.047272 
	C925.471558,388.519867 917.058655,379.709015 916.877625,367.982239 
	C916.653931,353.491364 916.827393,338.994354 916.829041,324.000000 
z"/>
<path fill="#000000" opacity="1.000000" stroke="none" 
	d="
M156.267395,941.902039 
	C107.462593,922.721069 74.473183,888.612122 56.777737,839.759460 
	C50.484993,822.386658 48.038319,804.264526 48.010281,785.841919 
	C47.934437,736.010193 47.959644,686.178284 47.985477,636.346436 
	C47.988354,630.806519 48.477852,625.335266 52.329788,620.832214 
	C56.868057,615.526794 64.817032,613.247009 71.396133,615.388977 
	C78.958893,617.851257 83.826431,623.880615 84.295456,631.475159 
	C84.418526,633.468079 84.346153,635.473816 84.346138,637.473633 
	C84.345779,686.805481 84.020767,736.140076 84.442070,785.468323 
	C84.783569,825.452393 100.154449,859.009521 130.683060,885.003967 
	C151.674255,902.877441 176.132629,912.939819 203.852722,914.927612 
	C211.851318,915.501282 219.822769,915.621033 227.813065,915.626526 
	C274.144989,915.658325 320.476959,915.625061 366.808838,915.674683 
	C375.936127,915.684448 382.401154,921.047058 384.656799,930.119629 
	C386.544586,937.712585 382.772919,945.803528 375.432526,949.875427 
	C372.124573,951.710449 368.481262,952.154663 364.803131,952.154663 
	C312.971466,952.155029 261.138916,952.284729 209.308655,952.002319 
	C191.233612,951.903748 173.598801,948.482666 156.267395,941.902039 
z"/>
</svg>